<svg width="93" height="93" viewBox="0 0 93 93" fill="none" xmlns="http://www.w3.org/2000/svg">
<g opacity="0.1">
<path d="M32.4628 69.6047C33.5672 69.6047 34.6134 69.8081 35.6015 70.215C36.5897 70.6219 37.4615 71.1886 38.2172 71.9152C38.9728 72.6417 39.554 73.4991 39.9609 74.4872C40.3678 75.4753 40.5712 76.5216 40.5712 77.6259C40.5712 78.7303 40.3678 79.7766 39.9609 80.7647C39.554 81.7528 38.9728 82.6102 38.2172 83.3367C37.4615 84.0633 36.5897 84.6445 35.6015 85.0805C34.6134 85.5164 33.5672 85.7344 32.4628 85.7344C31.3003 85.7344 30.2395 85.5164 29.2804 85.0805C28.3214 84.6445 27.464 84.0633 26.7084 83.3367C25.9528 82.6102 25.3715 81.7528 24.9647 80.7647C24.5578 79.7766 24.3544 78.7303 24.3544 77.6259C24.3544 76.5216 24.5578 75.4753 24.9647 74.4872C25.3715 73.4991 25.9528 72.6417 26.7084 71.9152C27.464 71.1886 28.3214 70.6219 29.2804 70.215C30.2395 69.8081 31.3003 69.6047 32.4628 69.6047ZM68.7328 69.7791C69.8372 69.7791 70.8979 69.9825 71.9151 70.3894C72.9323 70.7963 73.8042 71.363 74.5308 72.0895C75.2573 72.8161 75.8386 73.6734 76.2745 74.6616C76.7104 75.6497 76.9284 76.6959 76.9284 77.8003C76.9284 78.9047 76.7104 79.9509 76.2745 80.9391C75.8386 81.9272 75.2573 82.7845 74.5308 83.5111C73.8042 84.2377 72.9323 84.8189 71.9151 85.2548C70.8979 85.6908 69.8372 85.9088 68.7328 85.9088C67.6284 85.9088 66.5822 85.6908 65.594 85.2548C64.6059 84.8189 63.7486 84.2377 63.022 83.5111C62.2954 82.7845 61.7142 81.9272 61.2783 80.9391C60.8423 79.9509 60.6244 78.9047 60.6244 77.8003C60.6244 76.6959 60.8423 75.6497 61.2783 74.6616C61.7142 73.6734 62.2954 72.8161 63.022 72.0895C63.7486 71.363 64.6059 70.7963 65.594 70.3894C66.5822 69.9825 67.6284 69.7791 68.7328 69.7791ZM83.3803 20.2566C85.0078 20.2566 86.272 20.4745 87.173 20.9105C88.0739 21.3464 88.7133 21.8841 89.0911 22.5234C89.4689 23.1628 89.6433 23.8458 89.6142 24.5723C89.5851 25.2989 89.4834 25.9238 89.309 26.4469C89.1347 26.97 88.7714 28.0453 88.2192 29.6728C87.667 31.3003 87.0422 33.0877 86.3447 35.0348C85.6472 36.982 84.9642 38.9147 84.2958 40.8328C83.6273 42.7509 83.1187 44.2622 82.77 45.3666C82.0144 47.6916 81.0553 49.3045 79.8928 50.2055C78.7303 51.1064 77.3062 51.5569 75.6206 51.5569H72.6562H66.989H59.5781H51.4697H29.8472L31.155 59.4038H75.0975C77.8875 59.4038 79.2825 60.5953 79.2825 62.9784C79.2825 64.1409 79.0064 65.1436 78.4542 65.9864C77.902 66.8292 76.8122 67.2506 75.1847 67.2506H70.9997H62.8912H52.8647H42.6637H34.2937H29.4984C28.3359 67.2506 27.3623 66.9891 26.5776 66.4659C25.7929 65.9428 25.139 65.2598 24.6159 64.417C24.0928 63.5742 23.6714 62.6588 23.3517 61.6706C23.032 60.6825 22.785 59.7525 22.6106 58.8806C22.5525 58.5319 22.3926 57.6891 22.1311 56.3522C21.8695 55.0153 21.5498 53.3442 21.172 51.3389C20.7942 49.3336 20.3728 47.0958 19.9078 44.6255C19.4428 42.1552 18.9778 39.6703 18.5128 37.1709C17.4084 31.3003 16.1587 24.7613 14.7637 17.5538H8.22467C7.35279 17.5538 6.62623 17.3358 6.04498 16.8998C5.46373 16.4639 4.9842 15.9408 4.60639 15.3305C4.22857 14.7202 3.96701 14.0663 3.8217 13.3688C3.67639 12.6713 3.60373 12.0319 3.60373 11.4506C3.60373 10.2881 3.99607 9.32907 4.78076 8.57344C5.56545 7.81782 6.62623 7.44 7.9631 7.44H9.88123H11.625H13.8047H16.769C17.9315 7.44 18.8615 7.61438 19.559 7.96313C20.2565 8.31188 20.8087 8.74782 21.2156 9.27094C21.6225 9.79407 21.9131 10.3463 22.0875 10.9275C22.2619 11.5088 22.4072 12.0028 22.5234 12.4097C22.6397 12.8747 22.7559 13.5286 22.8722 14.3714C22.9884 15.2142 23.1047 16.0716 23.2209 16.9434C23.3953 17.9897 23.5697 19.0941 23.744 20.2566H83.3803Z" fill="#8F9DB2"/>
</g>
</svg>
